<?xml version="1.0" encoding="utf-8"?>
<!-- Generator: Adobe Illustrator 16.0.3, SVG Export Plug-In . SVG Version: 6.00 Build 0)  -->
<!DOCTYPE svg PUBLIC "-//W3C//DTD SVG 1.1//EN" "http://www.w3.org/Graphics/SVG/1.1/DTD/svg11.dtd">
<svg version="1.1" id="レイヤー_1" xmlns="http://www.w3.org/2000/svg" xmlns:xlink="http://www.w3.org/1999/xlink" x="0px"
	 y="0px" width="400px" height="100px" viewBox="0 0 400 100" enable-background="new 0 0 400 100" xml:space="preserve">
<g>
	<path d="M26.816,34.608c0-0.063-0.185,0.44-0.552,1.512c-0.369,1.072-0.552,2.04-0.552,2.904l-0.864,18.144
		c0,1.568,0.016,2.656,0.048,3.264c0.032,0.896,0.175,3.152,0.432,6.769c0,2.592-0.624,3.888-1.872,3.888l-0.48,0.096
		c-0.8,0-1.2-0.72-1.2-2.16c0-0.191,0.016-0.68,0.048-1.463c0.031-0.785,0.048-1.849,0.048-3.192V59.76l0.672-18.528
		c0-1.216-0.272-2.088-0.816-2.616c-0.544-0.528-0.816-1.048-0.816-1.56c0-0.64,0.399-1.488,1.2-2.544
		c0.896-1.216,1.776-1.824,2.64-1.824c0.544,0,1.024,0.232,1.44,0.696C26.607,33.848,26.816,34.256,26.816,34.608z M58.448,67.68
		c0,0.385-0.209,0.809-0.624,1.272c-0.417,0.464-0.816,0.696-1.2,0.696h-0.288c-0.736,0-3.888-2.928-9.456-8.785
		c-0.512,1.506-1.601,3.313-3.264,5.425C41.536,68.977,39.664,70.32,38,70.32c-0.064,0-0.216,0.016-0.456,0.048
		c-0.24,0.031-0.408,0.048-0.504,0.048c-0.544,0-1.28-0.465-2.208-1.393c-0.768-0.8-1.28-1.439-1.536-1.92
		c-0.928-2.047-1.392-3.936-1.392-5.664c0-2.111,0.64-4.207,1.92-6.287c1.471-2.336,3.184-3.504,5.136-3.504l1.248-0.097
		c1.152,0,2.688,1.024,4.608,3.072V41.808H33.584c-0.064,0.032-0.336,0.08-0.816,0.144c-0.48,0.064-0.752,0.096-0.816,0.096
		c-0.544,0-1.008-0.336-1.392-1.008c-0.32-0.512-0.48-0.943-0.48-1.296c0-0.928,0.496-1.392,1.488-1.392
		c0.064,0,0.184,0.032,0.36,0.096c0.175,0.064,0.304,0.096,0.384,0.096c0.08,0,0.368,0.032,0.864,0.096
		c0.496,0.064,0.784,0.096,0.864,0.096c0.08,0,0.319,0.024,0.72,0.072c0.4,0.048,0.648,0.072,0.744,0.072l9.216,0.096
		c0.096-0.127,0.144-0.224,0.144-0.288c0-0.736-0.192-1.392-0.576-1.968c-0.384-0.576-0.576-0.976-0.576-1.2
		c0-0.48,0.336-1.072,1.008-1.776c0.672-0.704,1.279-1.056,1.824-1.056c0.96,0,1.44,0.833,1.44,2.496c0,0.48-0.08,1.36-0.24,2.64
		v1.152c1.184,0.032,2.544-0.032,4.08-0.192c0-2.016,0-3.2,0-3.552c0-0.096-0.041-0.384-0.12-0.864
		c-0.081-0.48-0.104-0.832-0.072-1.056c0.512-0.607,1.248-0.912,2.208-0.912c0.576,0,0.864,0.336,0.864,1.008
		c0,0.096-0.048,0.616-0.144,1.56c-0.096,0.944-0.144,1.448-0.144,1.512v5.232c0,1.824,0,2.72,0,2.688
		c-0.161,1.056-0.656,1.584-1.488,1.584c-0.096,0-0.161,0.017-0.192,0.048c-0.032,0.032-0.08,0.048-0.144,0.048
		c-0.576,0-0.864-0.416-0.864-1.248c0-0.16,0.016-0.448,0.048-0.864c0.032-0.415,0.048-0.735,0.048-0.96
		c0-0.48-0.065-0.879-0.192-1.2c-0.608,0-1.968-0.032-4.08-0.096v15.456c0,0.129,0.976,1.217,2.928,3.264
		c0.832,0.896,1.536,1.602,2.112,2.112c0.576,0.513,1.808,1.568,3.696,3.168C57.728,66.928,58.448,67.584,58.448,67.68z
		 M44.48,58.368c0-0.319-0.712-1.04-2.136-2.16c-1.424-1.12-2.393-1.681-2.904-1.681c-1.44,0-2.624,0.93-3.552,2.785
		c-0.737,1.439-1.104,2.768-1.104,3.983c0,0.864,0.208,1.92,0.624,3.168c0.607,1.663,1.344,2.496,2.208,2.496h0.288
		c1.12,0,2.544-1.279,4.272-3.84C43.712,60.785,44.48,59.201,44.48,58.368z M60.464,40.08c0,1.696-0.048,2.8-0.144,3.312
		c-0.256,1.728-0.896,2.592-1.92,2.592c-0.608,0-0.912-0.304-0.912-0.912v-11.04c0-1.216,0.72-1.824,2.16-1.824
		c0.288,0,0.528,0.464,0.72,1.392L60.464,40.08z"/>
	<path d="M105.008,47.52c0,0.353-0.216,0.632-0.648,0.84c-0.432,0.208-0.84,0.312-1.224,0.312c-0.161,0-0.377,0.032-0.648,0.096
		c-0.272,0.064-0.464,0.096-0.576,0.096c-0.113,0-0.288,0.033-0.528,0.096c-0.24,0.064-0.392,0.096-0.456,0.096l-0.288-0.096
		c-0.096,0-0.296,0.017-0.6,0.048c-0.305,0.032-0.497,0.048-0.576,0.048c-0.08,0-0.4,0.032-0.96,0.096
		c-0.56,0.064-0.888,0.096-0.984,0.096l-0.48-0.144l-5.328,0.24c-0.192,0.192-0.24,0.624-0.144,1.296
		c0.064,0.288,0.096,0.576,0.096,0.864c0,2.145-0.896,4.416-2.688,6.816c-1.792,2.4-3.92,4.016-6.384,4.848
		c1.824,2.688,3.808,4.72,5.952,6.096c0.256,0.16,0.384,0.432,0.384,0.816c0,0.319-0.264,0.6-0.792,0.84
		c-0.528,0.24-0.953,0.359-1.272,0.359l-0.288,0.097c-0.288,0-0.849-0.32-1.68-0.96c-0.704-0.545-1.2-0.977-1.488-1.296
		c-1.344-1.536-2.577-3.104-3.696-4.704c-0.8-1.248-1.601-2.496-2.4-3.744c-1.088-1.6-2.112-2.928-3.072-3.984
		c-0.864-0.928-1.296-1.535-1.296-1.824c0-0.414,0.168-0.783,0.504-1.104c0.336-0.319,0.727-0.48,1.176-0.48
		c0.799,0,2.064,1.17,3.792,3.505c0.864,1.313,1.728,2.608,2.592,3.888c5.088-2.336,7.632-5.791,7.632-10.368
		c0-0.512-0.017-0.832-0.048-0.96l-18.096,0.288c-0.064,0-0.344,0.032-0.84,0.096c-0.496,0.064-0.792,0.096-0.888,0.096
		c-0.736,0-1.104-0.368-1.104-1.104c0-0.416,0.304-0.912,0.912-1.488c0.607-0.576,1.12-0.864,1.536-0.864
		c0.096,0,0.2,0.016,0.312,0.048c0.112,0.032,0.208,0.048,0.288,0.048c0.08,0,0.176,0.032,0.288,0.096
		c0.112,0.064,0.216,0.096,0.312,0.096h0.72c0.096,0,0.231,0.017,0.408,0.048c0.176,0.032,0.295,0.048,0.36,0.048l0.144,0.096h1.392
		c0.064,0,0.88-0.016,2.448-0.048c1.567-0.031,2.4-0.048,2.496-0.048l8.976-0.096c-0.128-1.12-0.384-2.671-0.768-4.656
		c-0.576,0-1.392,0.017-2.448,0.048c-1.152,0.064-1.664,0.096-1.536,0.096h-0.768l-12.432,0.192c-0.065,0-0.152,0.017-0.264,0.048
		c-0.112,0.032-0.208,0.048-0.288,0.048c-0.08,0-0.272,0.032-0.576,0.096c-0.304,0.064-0.504,0.096-0.6,0.096
		c-0.32,0-0.665-0.16-1.032-0.48c-0.368-0.319-0.552-0.592-0.552-0.816c0-0.607,0.319-1.12,0.96-1.536
		c0.543-0.352,1.056-0.528,1.536-0.528c0.064,0,0.304,0.016,0.72,0.048c0.416,0.032,0.672,0.048,0.768,0.048
		c0.096,0,0.216,0.032,0.36,0.096c0.144,0.064,0.248,0.096,0.312,0.096l0.288-0.192h14.88c0.032-0.255-0.12-1.248-0.456-2.976
		s-0.504-2.623-0.504-2.688c0-0.543,0.232-1.104,0.696-1.68c0.464-0.576,1-0.864,1.608-0.864c0.607,0,0.943,0.785,1.008,2.352
		c0.127,2.496,0.4,4.416,0.816,5.76c0.672-0.064,1.648-0.096,2.928-0.096c0.096,0,0.408-0.016,0.936-0.048
		c0.528-0.032,0.832-0.048,0.912-0.048c0.08,0,0.56-0.031,1.44-0.096c0.879-0.064,1.359-0.096,1.44-0.096
		c0.08,0,0.255-0.024,0.528-0.072c0.271-0.048,0.448-0.072,0.528-0.072c0.08,0,0.208-0.016,0.384-0.048
		c0.175-0.031,0.312-0.048,0.408-0.048c0.224,0,0.6-0.096,1.128-0.288c0.528-0.192,1.08-0.288,1.656-0.288
		c0.384,0,0.872,0.176,1.464,0.528c0.592,0.353,0.888,0.737,0.888,1.152c0,0.416-0.4,0.784-1.2,1.104
		c-0.608,0.224-1.12,0.336-1.536,0.336c-0.128,0-0.369,0.032-0.72,0.096c-0.353,0.065-0.584,0.096-0.696,0.096
		c-0.113,0-0.305,0.017-0.576,0.048c-0.272,0.032-0.44,0.048-0.504,0.048l-7.824,0.48c-0.576,0-0.928-0.032-1.056-0.096
		c-0.096,0.096-0.144,0.176-0.144,0.24c0,0.032,0.112,0.608,0.336,1.728c0.288,1.248,0.463,2.16,0.528,2.736l5.232-0.192
		c0.32,0,1.375-0.064,3.168-0.192c1.792-0.127,2.736-0.192,2.832-0.192c0.384,0,0.904,0.161,1.56,0.48
		C104.68,46.784,105.008,47.136,105.008,47.52z"/>
	<path d="M146.864,54.863c0,2.529-1.008,5.072-3.024,7.633c-2.208,2.816-4.736,4.303-7.584,4.464
		c-2.336,3.456-3.952,5.185-4.848,5.185h-0.288c-0.161,0-0.417-0.168-0.768-0.504c-0.353-0.336-0.528-0.569-0.528-0.697
		c0-0.352,0.304-0.8,0.912-1.344c0.48-0.416,0.944-0.815,1.392-1.199c0.544-0.608,1.056-1.265,1.536-1.969
		c-0.544-0.191-1.409-0.879-2.592-2.063c-1.28-1.28-1.92-2.272-1.92-2.976c0-0.32,0.16-0.697,0.48-1.129
		c0.32-0.432,0.656-0.647,1.008-0.647h0.288c0.319,0.224,0.847,0.944,1.584,2.159c0.703,1.089,1.423,1.824,2.16,2.209
		c0.64-1.023,1.104-3.168,1.392-6.433c0.032-0.255,0.048-1.104,0.048-2.544c0-1.663-0.048-2.496-0.144-2.496
		c-0.096,0-0.784,0.408-2.064,1.225c-1.28,0.815-2.736,1.896-4.368,3.24c-2.688,2.144-4.032,3.615-4.032,4.416
		c0,0.383,0.4,1.24,1.2,2.567c0.799,1.328,1.2,2.056,1.2,2.185c0,0.383-0.24,0.703-0.72,0.959c-0.353,0.225-0.656,0.336-0.912,0.336
		c-1.504,0-2.784-2.287-3.84-6.863c-0.8-3.392-1.2-5.872-1.2-7.439v-4.321c0-1.087,0.176-2.08,0.528-2.976
		c0.416-1.183,1.072-1.776,1.968-1.776c0.736,0,1.104,0.336,1.104,1.008c-0.512,4.353-0.768,6.881-0.768,7.584
		c0,2.624,0.208,4.496,0.624,5.615c2.752-3.327,6.48-6.127,11.184-8.399c-0.032-0.16-0.128-1.072-0.288-2.736
		c-0.064-1.024-0.305-1.536-0.72-1.536c-0.128,0-0.688,0.497-1.68,1.488c-0.992,0.992-1.616,1.488-1.872,1.488
		c-0.353,0-0.704-0.152-1.056-0.456c-0.353-0.304-0.528-0.616-0.528-0.936c0-0.672,1.167-1.808,3.504-3.408
		c2.24-1.536,3.664-2.304,4.272-2.304c0.256,0,0.528,0.185,0.816,0.552c0.288,0.368,0.432,0.68,0.432,0.936
		c0,0.064-0.096,0.488-0.288,1.272c-0.192,0.785-0.288,1.224-0.288,1.32c0,0.8,0.064,1.904,0.192,3.312
		c0.223,0,0.616-0.031,1.176-0.096c0.56-0.064,0.856-0.096,0.888-0.096c1.951,0,3.343,0.161,4.176,0.48
		c1.504,0.576,2.256,1.776,2.256,3.6V54.863z M144.128,53.52c0-1.631-0.977-2.447-2.928-2.447c-0.545,0-1.457,0.16-2.736,0.479
		v1.296c0,0.449,0.024,1.08,0.072,1.896c0.048,0.816,0.072,1.464,0.072,1.943c0,1.984-0.353,4.434-1.056,7.345
		c1.984-0.608,3.616-2.08,4.896-4.416C143.568,57.536,144.128,55.504,144.128,53.52z"/>
	<path d="M195.632,53.712c0,0.769-0.624,2.321-1.872,4.656c-0.896,1.664-4.271,4.344-10.128,8.04
		c-5.855,3.695-9.632,5.544-11.328,5.544c-0.064,0-0.144,0.016-0.239,0.048c-0.097,0.031-0.177,0.048-0.24,0.048
		c-0.513,0-0.977-0.177-1.393-0.528s-0.624-0.768-0.624-1.248c0-0.479,0.24-0.863,0.721-1.151c0.319-0.225,0.56-0.336,0.72-0.336
		c0.928,0.063,3.12-0.849,6.576-2.736c3.615-1.951,6.751-3.983,9.408-6.096c3.199-2.528,4.8-4.513,4.8-5.952
		c0-0.607-0.32-1.119-0.96-1.536c-0.641-0.415-1.265-0.624-1.872-0.624h-5.856c-0.064,0-0.504,0.049-1.319,0.145
		c-0.816,0.096-1.265,0.144-1.345,0.144s-0.248,0.017-0.504,0.048c-0.256,0.032-0.416,0.049-0.479,0.049
		c-0.064,0-0.161-0.017-0.288-0.049c-0.129-0.031-0.225-0.048-0.288-0.048c-0.096,0-0.152,0.032-0.168,0.097
		c-0.017,0.064-0.057,0.096-0.12,0.096l-0.288-0.096c-0.225,0-0.576,0.031-1.056,0.096c-0.48,0.064-0.833,0.096-1.057,0.096
		c-0.064,0-0.191,0.017-0.384,0.048c-0.191,0.032-0.328,0.048-0.408,0.048s-0.191,0.033-0.336,0.096
		c-0.144,0.064-0.248,0.097-0.312,0.097c-0.161,0-0.393,0.032-0.696,0.096c-0.305,0.064-0.536,0.097-0.696,0.097h-0.72
		c-0.096,0-0.216,0.031-0.36,0.096c-0.144,0.064-0.264,0.096-0.359,0.096h-0.72c-0.385,0-0.833-0.16-1.345-0.48
		c-0.641-0.415-0.96-0.847-0.96-1.295c0-0.064,0.064-0.416,0.192-1.057c0.127-0.64,0.159-1.152,0.096-1.536l0.096-8.064
		c-0.448-2.943-0.672-4.24-0.672-3.888c0-0.512,0.353-1.272,1.057-2.28c0.703-1.008,1.423-1.512,2.16-1.512
		c0.319,0,0.575,0.288,0.768,0.864c0.128,0.384,0.256,0.785,0.384,1.2l-0.576,3.984V49.2c0,0.128,0.12,0.28,0.36,0.456
		c0.24,0.176,0.456,0.264,0.648,0.264c0.063,0,0.52-0.016,1.367-0.048c0.848-0.032,1.313-0.048,1.393-0.048
		c0.079,0,0.871-0.08,2.376-0.24c1.504-0.16,2.287-0.24,2.352-0.24h0.288c0.063,0,1.023-0.064,2.88-0.192
		c1.855-0.127,2.815-0.192,2.88-0.192s0.496,0.032,1.297,0.096c0.799,0.064,1.231,0.096,1.296,0.096
		c1.407,0,2.703,0.417,3.888,1.248C194.976,51.297,195.632,52.4,195.632,53.712z M195.824,34.848c0,1.024-0.513,2.128-1.536,3.312
		c-0.929,1.056-1.968,1.84-3.12,2.352c-0.128,0.064-0.513,0.272-1.152,0.624c-0.512,0.288-0.809,0.432-0.888,0.432
		c-0.08,0-0.353,0.144-0.816,0.432s-0.736,0.432-0.815,0.432c-0.08,0-0.16,0.032-0.24,0.096c-0.08,0.064-0.168,0.096-0.264,0.096
		c-0.353,0-1.2,0.305-2.544,0.912c-1.345,0.608-2.064,0.912-2.16,0.912c-0.32,0-0.545,0.064-0.672,0.192
		c-0.864-0.576-1.296-1.12-1.296-1.632c0-0.703,0.207-1.087,0.624-1.152c1.312-0.192,3.359-0.992,6.144-2.4
		c3.36-1.696,5.04-3.2,5.04-4.512c0-0.063-0.16-0.424-0.479-1.08c-0.32-0.655-0.48-1.032-0.48-1.128c0-0.384,0.24-0.703,0.72-0.96
		c0.385-0.223,0.769-0.336,1.152-0.336c0.864,0,1.567,0.4,2.112,1.2C195.6,33.312,195.824,34.048,195.824,34.848z"/>
	<path d="M250.64,37.344c0,0.448-0.144,0.864-0.432,1.248c-0.288,0.384-0.656,0.576-1.104,0.576l-38.544,0.096
		c-0.384,0-0.728-0.168-1.031-0.504c-0.305-0.336-0.456-0.679-0.456-1.032c0-1.056,0.783-1.584,2.352-1.584l16.752,0.096
		c0.16,0,0.145-0.992-0.048-2.976c0-2.048,0.607-3.072,1.824-3.072c0.96,0,1.439,0.816,1.439,2.448v3.456l0.192,0.096l17.76-0.144
		C250.208,36.048,250.64,36.48,250.64,37.344z M223.424,60.288c0,1.376-1.84,3.647-5.52,6.815c-3.553,3.104-5.937,4.656-7.152,4.656
		c-0.992,0-1.488-0.432-1.488-1.296c0-0.513,0.208-0.912,0.624-1.2c1.76-1.248,3.521-2.496,5.28-3.744
		c3.199-2.399,4.8-4.063,4.8-4.992c0-0.318-0.16-0.631-0.479-0.936c-0.32-0.304-0.48-0.584-0.48-0.84
		c0-0.384,0.184-0.703,0.552-0.96c0.368-0.256,0.744-0.384,1.129-0.384c0.703,0,1.335,0.336,1.896,1.008
		C223.144,59.088,223.424,59.712,223.424,60.288z M242.72,45.504l-0.096,8.688c0.031,0.225-0.104,0.497-0.408,0.816
		c-0.305,0.32-0.6,0.48-0.888,0.48c-0.064,0-0.696-0.016-1.896-0.049c-1.199-0.031-1.84-0.047-1.92-0.047s-0.384-0.032-0.912-0.097
		c-0.527-0.063-0.84-0.096-0.936-0.096l-3.6,0.096c-0.161,0.608-0.209,3.376-0.145,8.304c0.031,1.856,0.063,3.217,0.096,4.08
		c0.128,3.232-0.672,4.848-2.399,4.848c-0.064,0-0.336,0.017-0.816,0.049c-0.479,0.031-0.752,0.048-0.815,0.048
		c-0.064,0-0.209-0.032-0.433-0.097s-0.368-0.096-0.432-0.096c-0.064,0-0.16-0.016-0.288-0.048s-0.225-0.048-0.288-0.048
		c-0.704,0-1.712-0.271-3.024-0.816c-1.535-0.641-2.304-1.279-2.304-1.92c0-0.32,0.168-0.664,0.504-1.031
		c0.336-0.369,0.696-0.521,1.08-0.457l5.088,1.633h0.576c0.224,0,0.367-0.96,0.433-2.881V55.488c0-0.064-0.049-0.128-0.145-0.192
		c-3.648,0.032-6.305,0.081-7.968,0.144c-1.44,0.033-2.049,0.049-1.824,0.049c-1.024,0-1.536-0.432-1.536-1.297
		c0-0.159,0.016-0.383,0.048-0.672c0.032-0.287,0.048-0.479,0.048-0.576v-5.951c0-0.064-0.096-0.48-0.287-1.248
		c-0.192-0.768-0.288-1.184-0.288-1.248c0-0.607,0.231-1.104,0.695-1.488c0.464-0.384,0.968-0.576,1.513-0.576
		c0.063,0,0.247,0.017,0.552,0.048c0.304,0.032,0.504,0.048,0.6,0.048l18.24,0.096c0.096,0,0.231-0.016,0.408-0.048
		c0.176-0.032,0.304-0.048,0.384-0.048c0.079,0,0.376-0.031,0.888-0.096c0.512-0.064,0.8-0.096,0.864-0.096
		c1.152,0,1.729,0.561,1.729,1.68c0,0.16-0.017,0.408-0.049,0.744C242.735,45.096,242.72,45.344,242.72,45.504z M239.36,52.416
		v-7.008h-18.624v7.008H239.36z M249.392,69.504c0,0.864-0.496,1.296-1.487,1.296c-1.089,0-3.281-1.608-6.576-4.823
		c-3.296-3.217-4.944-5.449-4.944-6.697c0-0.479,0.224-0.863,0.672-1.151s0.912-0.433,1.393-0.433c0.288,0,0.848,0.594,1.68,1.777
		c0.544,0.768,1.072,1.552,1.584,2.352c0.48,0.545,1.231,1.344,2.256,2.4c0.544,0.512,1.936,1.695,4.176,3.551
		C248.976,68.448,249.392,69.023,249.392,69.504z"/>
	<path d="M282.08,47.04c0,0.768-0.464,1.152-1.392,1.152c-0.065,0-0.24,0.032-0.528,0.096c-0.288,0.064-0.465,0.096-0.528,0.096
		h-7.296l-3.696,4.177c0,0.096,0.049,0.144,0.145,0.144l5.28,0.096c0.063,0,0.247-0.031,0.552-0.096
		c0.304-0.063,0.495-0.097,0.576-0.097c0.079,0,0.432-0.079,1.056-0.239s0.984-0.24,1.08-0.24c0.544,0,0.976,0.265,1.296,0.792
		c0.319,0.528,0.479,1.049,0.479,1.561v14.256c0,0.543-0.191,1.056-0.575,1.535c-0.385,0.48-0.864,0.721-1.44,0.721
		c-0.064,0-0.296-0.017-0.696-0.049c-0.4-0.031-0.64-0.047-0.72-0.047s-0.208-0.018-0.384-0.049
		c-0.177-0.031-0.296-0.048-0.36-0.048s-0.176-0.032-0.336-0.096c-0.16-0.064-0.272-0.097-0.336-0.097h-4.992
		c-0.096,0-0.216,0.032-0.359,0.097c-0.145,0.063-0.257,0.096-0.336,0.096c-0.081,0-0.721,0.097-1.92,0.288
		c-1.2,0.191-1.849,0.288-1.944,0.288c-0.353,0-0.672-0.2-0.96-0.601s-0.433-0.743-0.433-1.031c0-0.257,0.16-1.104,0.48-2.544
		l-0.144-9.12c-1.089,1.057-2.16,2.129-3.217,3.216c-1.664,1.601-2.768,2.399-3.312,2.399c-0.801,0-1.2-0.511-1.2-1.535
		c0-0.512,0.288-1.016,0.864-1.512s1.151-1,1.728-1.512c1.216-1.217,2.256-2.225,3.12-3.025c0.512-0.447,1.023-0.959,1.536-1.535
		c1.344-1.344,3.264-3.439,5.76-6.288h-11.424c-0.257,0-0.496-0.208-0.72-0.624c-0.192-0.319-0.288-0.544-0.288-0.672
		c0-0.352,0.176-0.704,0.528-1.056c0.352-0.352,0.735-0.528,1.151-0.528c0.064,0,0.344,0.016,0.84,0.048
		c0.496,0.032,0.792,0.048,0.889,0.048c0.096,0,0.456,0.032,1.08,0.096c0.624,0.064,0.967,0.096,1.031,0.096l0.673-0.096
		c-0.161,0,0.199,0.017,1.079,0.048c0.88,0.032,1.976,0.048,3.288,0.048c-0.128-0.096-0.16-0.367-0.096-0.816
		c0.031-0.319,0.079-0.655,0.144-1.008v-4.56h-6.96c-0.353,0-0.712-0.136-1.079-0.408c-0.369-0.271-0.553-0.583-0.553-0.936
		c0-0.255,0.168-0.576,0.504-0.96c0.336-0.384,0.632-0.576,0.889-0.576c0.063,0,0.472,0.017,1.224,0.048
		c0.752,0.032,1.176,0.048,1.272,0.048c-0.064,0,0.327,0.024,1.176,0.072c0.848,0.048,1.976,0.088,3.384,0.12
		c0.031-0.416-0.017-1.304-0.144-2.664c-0.129-1.36-0.192-2.023-0.192-1.992c0-1.184,0.592-1.776,1.776-1.776
		c0.991,0,1.487,0.833,1.487,2.496c0,0.32-0.017,0.712-0.048,1.176c-0.032,0.464-0.048,0.729-0.048,0.792v1.824
		c0.576,0.16,1.184,0.24,1.824,0.24c0.415,0,1.048-0.048,1.896-0.144c0.848-0.096,1.544-0.144,2.088-0.144
		c0.064,0,0.224-0.016,0.48-0.048c0.256-0.031,0.415-0.048,0.479-0.048l2.784-0.096c0.384,0,0.744,0.144,1.08,0.432
		s0.504,0.641,0.504,1.056c0,0.704-0.448,1.168-1.344,1.392c-0.288,0.064-0.944,0.113-1.968,0.144
		c-0.833,1.344-2.032,3.456-3.601,6.336c0.256-0.063,0.656-0.096,1.2-0.096h0.288c0.063,0,0.319-0.016,0.769-0.048
		c0.447-0.031,0.711-0.048,0.792-0.048c0.079,0,0.575-0.016,1.487-0.048c0.912-0.032,1.399-0.048,1.464-0.048
		c0.416,0,0.864,0.16,1.345,0.48C281.84,46.208,282.08,46.592,282.08,47.04z M276.464,59.712v-4.272h-10.032v4.465l9.648-0.096
		C276.272,59.809,276.399,59.776,276.464,59.712z M276.512,67.775v-5.279h-10.08v5.424h9.937L276.512,67.775z M274.4,39.36h-4.656
		v6.24l1.152,0.096C271.856,44.192,273.023,42.08,274.4,39.36z M299.504,33.312c0,0.544-3.12,5.552-9.36,15.024
		c2.048,1.152,3.824,2.928,5.328,5.328c1.6,2.496,2.4,4.848,2.4,7.057v2.063c0,0.992-0.416,2.016-1.248,3.071
		c-0.929,1.184-1.937,1.776-3.024,1.776c-0.096,0-0.359,0.017-0.792,0.048c-0.432,0.031-0.68,0.049-0.743,0.049
		c-0.641,0-1.665-0.354-3.072-1.057c-1.248-0.607-2.081-1.135-2.496-1.584c0.063,1.279-0.017,2.752-0.24,4.416
		c-0.288,2.336-0.815,3.504-1.584,3.504h-0.528c-0.8,0-1.199-0.912-1.199-2.736l0.575-8.111V36.432c0-0.096-0.064-0.552-0.191-1.368
		c-0.128-0.816-0.192-1.272-0.192-1.368c0-1.248,0.433-1.872,1.296-1.872c0.064,0,0.408,0.048,1.032,0.144
		c0.624,0.096,0.984,0.144,1.08,0.144s0.231,0.017,0.408,0.048c0.176,0.032,0.304,0.048,0.384,0.048c0.079,0,0.24,0.032,0.48,0.096
		c0.239,0.064,0.407,0.096,0.504,0.096h5.136c0.096,0,0.296-0.016,0.6-0.048c0.304-0.032,0.496-0.048,0.576-0.048
		s0.224-0.032,0.433-0.096c0.207-0.064,0.352-0.096,0.432-0.096c0.079,0,0.176-0.016,0.288-0.048
		c0.111-0.031,0.208-0.048,0.288-0.048c0.079,0,0.159-0.016,0.239-0.048c0.08-0.031,0.16-0.048,0.24-0.048s0.256-0.016,0.528-0.048
		c0.271-0.032,0.456-0.048,0.552-0.048c0.352,0,0.752,0.168,1.2,0.504C299.279,32.664,299.504,32.993,299.504,33.312z
		 M295.184,61.393c0-2.336-0.72-4.544-2.159-6.625c-0.929-1.375-2.257-2.752-3.984-4.127c-1.44-1.152-2.16-1.792-2.16-1.92
		c0-0.096,1.12-1.888,3.36-5.376c2.496-3.904,4.144-6.608,4.943-8.112l-7.199-0.144c-0.129,0-0.4,0.072-0.816,0.216
		s-0.672,0.248-0.768,0.312v26.495c0.607,0.449,1.423,0.93,2.447,1.44c1.184,0.608,2.032,0.912,2.544,0.912
		c0.064,0,0.224,0.032,0.48,0.097c0.256,0.064,0.432,0.096,0.528,0.096c0.863,0,1.543-0.336,2.04-1.008
		C294.936,62.977,295.184,62.225,295.184,61.393z"/>
	<path d="M335.264,63.359c0,1.377-0.304,2.785-0.912,4.225c-0.8,1.888-1.855,2.832-3.168,2.832l-9.84,0.096
		c-0.064,0-0.256,0.049-0.576,0.145s-0.512,0.144-0.575,0.144h-0.769c-0.064,0-0.168,0.017-0.312,0.048
		c-0.145,0.031-0.265,0.049-0.36,0.049c-0.288,0-0.576-0.186-0.864-0.553c-0.288-0.368-0.432-0.713-0.432-1.031
		c0-0.225,0.208-0.833,0.624-1.824c0.415-0.992,0.624-1.744,0.624-2.256V35.28c0-0.031-0.064-0.16-0.192-0.384
		c-0.32-0.127-0.624-0.192-0.912-0.192c-1.056,0-1.584-0.448-1.584-1.344c0-0.255,0.128-0.56,0.385-0.912
		c0.255-0.352,0.527-0.528,0.815-0.528c0.063,0,0.304,0.017,0.72,0.048c0.416,0.033,0.664,0.048,0.744,0.048s0.4,0.032,0.96,0.096
		c0.56,0.064,0.872,0.096,0.937,0.096c0.063,0,0.191-0.016,0.384-0.048c0.192-0.032,0.328-0.048,0.408-0.048
		c0.079,0,0.304-0.031,0.672-0.096c0.367-0.064,0.583-0.096,0.648-0.096c0.352,0,0.64,0.208,0.863,0.624
		c0.224,0.417,0.336,0.736,0.336,0.96c0,0.32-0.152,0.6-0.456,0.84c-0.304,0.24-0.592,0.36-0.863,0.36
		c-0.272,0-0.617,0.064-1.032,0.192c-0.064-0.032-0.145,0-0.24,0.096v32.736h9.168c0.864,0,1.408-0.576,1.632-1.729
		c0.128-1.023,0.271-2.088,0.433-3.191c0.159-1.104,0.592-1.656,1.296-1.656C334.784,61.152,335.264,61.889,335.264,63.359z"/>
	<path d="M361.664,67.008c0,0.8-0.616,1.695-1.848,2.688c-1.232,0.992-2.201,1.488-2.904,1.488h-0.384
		c-0.737,0-1.393-0.512-1.969-1.535c-0.512-0.864-0.768-1.697-0.768-2.496c-2.272,2.688-4.385,4.031-6.336,4.031h-0.72
		c-2.017,0-3.536-0.943-4.561-2.832c-0.736-1.376-1.104-2.943-1.104-4.703c0-1.889,0.384-3.68,1.151-5.377
		c0.992-2.143,2.416-3.424,4.272-3.84l0.192-0.191c0.063,0,0.159,0,0.287,0s0.224,0,0.288,0s0.192-0.016,0.385-0.049
		c0.191-0.031,0.327-0.047,0.407-0.047s0.32-0.016,0.721-0.049c0.399-0.031,0.631-0.048,0.695-0.048c0.832,0,1.816,0.36,2.952,1.08
		s1.832,1.48,2.088,2.28c0.288-0.576,0.433-1.695,0.433-3.36c0-2.208-0.385-3.744-1.152-4.608c-0.864-0.96-2.496-1.44-4.896-1.44
		c-1.152,0-2.417,0.848-3.793,2.544c-1.376,1.696-2.159,2.544-2.352,2.544c-0.416,0-0.768-0.151-1.056-0.456
		c-0.288-0.304-0.433-0.632-0.433-0.983c0-1.408,1.072-2.848,3.217-4.32c1.92-1.344,3.455-2.016,4.607-2.016
		c2.304,0,4.176,0.416,5.616,1.248c1.824,1.056,2.736,2.705,2.736,4.944v3.553l-1.248,8.976v2.112c0,1.311,0.399,1.967,1.199,1.967
		c0.48,0,0.96-0.416,1.44-1.248c0.479-0.832,0.896-1.311,1.248-1.439h0.384c0.319,0,0.601,0.2,0.84,0.6
		C361.544,66.424,361.664,66.752,361.664,67.008z M353.312,61.393c0-0.992-0.256-1.904-0.768-2.736
		c-0.641-1.152-1.632-1.729-2.976-1.729c-0.064,0-0.225-0.031-0.48-0.096c-0.257-0.064-0.416-0.096-0.479-0.096
		c-1.601,0-2.832,0.928-3.696,2.783c-0.641,1.344-0.96,2.721-0.96,4.129c0,1.151,0.224,2.176,0.672,3.072
		c0.576,1.119,1.392,1.68,2.448,1.68l0.479-0.096c1.632,0,3.04-0.85,4.225-2.545C352.8,64.289,353.312,62.832,353.312,61.393z"/>
	<path d="M383.936,58.225c0-0.032-0.032,0.328-0.096,1.08c-0.064,0.752-0.096,1.319-0.096,1.703c0.096,1.601-0.416,3.521-1.536,5.76
		c-1.408,2.752-3.12,4.129-5.136,4.129c-0.097,0-0.2,0.031-0.313,0.096c-0.112,0.063-0.2,0.096-0.264,0.096h-0.864l-1.056,0.096
		c-0.096,0-0.216-0.031-0.36-0.096c-0.144-0.064-0.248-0.096-0.312-0.096c-0.064,0-0.2-0.032-0.408-0.096
		c-0.209-0.064-0.345-0.097-0.408-0.097c-0.641,0-1.536-0.528-2.688-1.584c-1.024-0.929-1.633-1.616-1.824-2.063
		c-0.064,0.832-0.129,1.663-0.192,2.496c-0.096,0.959-0.448,1.439-1.056,1.439l-0.288,0.096c-0.48,0-0.896-0.336-1.248-1.008
		c-0.288-0.512-0.432-0.943-0.432-1.296c0-0.032,0.071-0.632,0.216-1.8c0.144-1.168,0.199-2.088,0.168-2.76l0.096-26.353
		c-0.512-2.911-0.768-4.144-0.768-3.696c0-0.544,0.199-1.072,0.6-1.584c0.399-0.512,0.888-0.768,1.464-0.768h0.384
		c0.416,0,0.752,0.305,1.009,0.912c0.191,0.48,0.288,0.96,0.288,1.44c0,0.096-0.064,0.584-0.192,1.464
		c-0.128,0.881-0.192,1.353-0.192,1.416v11.664l0.145,0.144c0.512-0.832,1.312-1.632,2.399-2.4c1.216-0.832,2.32-1.248,3.313-1.248
		C380.72,45.312,383.936,49.616,383.936,58.225z M381.056,58.416c0-1.888-0.224-3.664-0.672-5.328
		c-0.832-3.072-2.256-4.608-4.271-4.608c-0.097,0-0.185-0.031-0.265-0.096c-0.08-0.063-0.152-0.096-0.216-0.096
		c-2.368,0-4.208,1.04-5.52,3.12c-1.057,1.664-1.584,3.584-1.584,5.76v1.92c0,0.768,0.288,2.225,0.863,4.368
		c0.256,1.024,0.904,2.057,1.944,3.096c1.04,1.04,1.992,1.56,2.856,1.56h0.911c2.336,0,4-1.231,4.992-3.695
		C380.735,62.816,381.056,60.816,381.056,58.416z"/>
</g>
<g>
	<path fill="#FFFFFF" d="M25.816,33.608c0-0.063-0.185,0.44-0.552,1.512c-0.369,1.072-0.552,2.04-0.552,2.904l-0.864,18.144
		c0,1.568,0.016,2.656,0.048,3.264c0.032,0.896,0.175,3.152,0.432,6.769c0,2.592-0.624,3.888-1.872,3.888l-0.48,0.096
		c-0.8,0-1.2-0.72-1.2-2.16c0-0.191,0.016-0.68,0.048-1.463c0.031-0.785,0.048-1.849,0.048-3.192V58.76l0.672-18.528
		c0-1.216-0.272-2.088-0.816-2.616c-0.544-0.528-0.816-1.048-0.816-1.56c0-0.64,0.399-1.488,1.2-2.544
		c0.896-1.216,1.776-1.824,2.64-1.824c0.544,0,1.024,0.232,1.44,0.696C25.607,32.848,25.816,33.256,25.816,33.608z M57.448,66.68
		c0,0.385-0.209,0.809-0.624,1.272c-0.417,0.464-0.816,0.696-1.2,0.696h-0.288c-0.736,0-3.888-2.928-9.456-8.785
		c-0.512,1.506-1.601,3.313-3.264,5.425C40.536,67.977,38.664,69.32,37,69.32c-0.064,0-0.216,0.016-0.456,0.048
		c-0.24,0.031-0.408,0.048-0.504,0.048c-0.544,0-1.28-0.465-2.208-1.393c-0.768-0.8-1.28-1.439-1.536-1.92
		c-0.928-2.047-1.392-3.936-1.392-5.664c0-2.111,0.64-4.207,1.92-6.287c1.471-2.336,3.184-3.504,5.136-3.504l1.248-0.096
		c1.152,0,2.688,1.024,4.608,3.072V40.808H32.584c-0.064,0.032-0.336,0.08-0.816,0.144c-0.48,0.064-0.752,0.096-0.816,0.096
		c-0.544,0-1.008-0.336-1.392-1.008c-0.32-0.512-0.48-0.943-0.48-1.296c0-0.928,0.496-1.392,1.488-1.392
		c0.064,0,0.184,0.032,0.36,0.096c0.175,0.064,0.304,0.096,0.384,0.096c0.08,0,0.368,0.032,0.864,0.096
		c0.496,0.064,0.784,0.096,0.864,0.096c0.08,0,0.319,0.024,0.72,0.072c0.4,0.048,0.648,0.072,0.744,0.072l9.216,0.096
		c0.096-0.127,0.144-0.224,0.144-0.288c0-0.736-0.192-1.392-0.576-1.968c-0.384-0.576-0.576-0.976-0.576-1.2
		c0-0.48,0.336-1.072,1.008-1.776c0.672-0.704,1.279-1.056,1.824-1.056c0.96,0,1.44,0.833,1.44,2.496c0,0.48-0.08,1.36-0.24,2.64
		v1.152c1.184,0.032,2.544-0.032,4.08-0.192c0-2.016,0-3.2,0-3.552c0-0.096-0.041-0.384-0.12-0.864
		c-0.081-0.48-0.104-0.832-0.072-1.056c0.512-0.607,1.248-0.912,2.208-0.912c0.576,0,0.864,0.336,0.864,1.008
		c0,0.096-0.048,0.616-0.144,1.56c-0.096,0.944-0.144,1.448-0.144,1.512v5.232c0,1.824,0,2.72,0,2.688
		c-0.161,1.056-0.656,1.584-1.488,1.584c-0.096,0-0.161,0.017-0.192,0.048c-0.032,0.032-0.08,0.048-0.144,0.048
		c-0.576,0-0.864-0.416-0.864-1.248c0-0.16,0.016-0.448,0.048-0.864c0.032-0.415,0.048-0.735,0.048-0.96
		c0-0.48-0.065-0.879-0.192-1.2c-0.608,0-1.968-0.032-4.08-0.096v15.456c0,0.129,0.976,1.217,2.928,3.264
		c0.832,0.896,1.536,1.602,2.112,2.112c0.576,0.513,1.808,1.568,3.696,3.168C56.728,65.928,57.448,66.584,57.448,66.68z
		 M43.48,57.368c0-0.319-0.712-1.04-2.136-2.16c-1.424-1.12-2.393-1.681-2.904-1.681c-1.44,0-2.624,0.93-3.552,2.785
		c-0.737,1.439-1.104,2.768-1.104,3.983c0,0.864,0.208,1.92,0.624,3.168c0.607,1.663,1.344,2.496,2.208,2.496h0.288
		c1.12,0,2.544-1.279,4.272-3.84C42.712,59.785,43.48,58.201,43.48,57.368z M59.464,39.08c0,1.696-0.048,2.8-0.144,3.312
		c-0.256,1.728-0.896,2.592-1.92,2.592c-0.608,0-0.912-0.304-0.912-0.912v-11.04c0-1.216,0.72-1.824,2.16-1.824
		c0.288,0,0.528,0.464,0.72,1.392L59.464,39.08z"/>
	<path fill="#FFFFFF" d="M104.008,46.52c0,0.353-0.216,0.632-0.648,0.84c-0.432,0.208-0.84,0.312-1.224,0.312
		c-0.161,0-0.377,0.032-0.648,0.096c-0.272,0.064-0.464,0.096-0.576,0.096c-0.113,0-0.288,0.033-0.528,0.096
		c-0.24,0.064-0.392,0.096-0.456,0.096L99.64,47.96c-0.096,0-0.296,0.017-0.6,0.048c-0.305,0.032-0.497,0.048-0.576,0.048
		c-0.08,0-0.4,0.032-0.96,0.096c-0.56,0.064-0.888,0.096-0.984,0.096l-0.48-0.144l-5.328,0.24c-0.192,0.192-0.24,0.624-0.144,1.296
		c0.064,0.288,0.096,0.576,0.096,0.864c0,2.145-0.896,4.416-2.688,6.816c-1.792,2.4-3.92,4.016-6.384,4.848
		c1.824,2.688,3.808,4.72,5.952,6.096c0.256,0.16,0.384,0.432,0.384,0.816c0,0.319-0.264,0.6-0.792,0.84
		c-0.528,0.24-0.953,0.359-1.272,0.359l-0.288,0.097c-0.288,0-0.849-0.32-1.68-0.96c-0.704-0.545-1.2-0.977-1.488-1.296
		c-1.344-1.536-2.577-3.104-3.696-4.704c-0.8-1.248-1.601-2.496-2.4-3.744c-1.088-1.6-2.112-2.928-3.072-3.984
		c-0.864-0.928-1.296-1.535-1.296-1.824c0-0.414,0.168-0.783,0.504-1.104c0.336-0.319,0.727-0.48,1.176-0.48
		c0.799,0,2.064,1.17,3.792,3.505c0.864,1.313,1.728,2.608,2.592,3.888c5.088-2.336,7.632-5.791,7.632-10.368
		c0-0.512-0.017-0.832-0.048-0.96l-18.096,0.288c-0.064,0-0.344,0.032-0.84,0.096c-0.496,0.064-0.792,0.096-0.888,0.096
		c-0.736,0-1.104-0.368-1.104-1.104c0-0.416,0.304-0.912,0.912-1.488c0.607-0.576,1.12-0.864,1.536-0.864
		c0.096,0,0.2,0.016,0.312,0.048c0.112,0.032,0.208,0.048,0.288,0.048c0.08,0,0.176,0.032,0.288,0.096
		c0.112,0.064,0.216,0.096,0.312,0.096h0.72c0.096,0,0.231,0.017,0.408,0.048c0.176,0.032,0.295,0.048,0.36,0.048l0.144,0.096h1.392
		c0.064,0,0.88-0.016,2.448-0.048c1.567-0.031,2.4-0.048,2.496-0.048l8.976-0.096c-0.128-1.12-0.384-2.671-0.768-4.656
		c-0.576,0-1.392,0.017-2.448,0.048c-1.152,0.064-1.664,0.096-1.536,0.096h-0.768l-12.432,0.192c-0.065,0-0.152,0.017-0.264,0.048
		c-0.112,0.032-0.208,0.048-0.288,0.048c-0.08,0-0.272,0.032-0.576,0.096c-0.304,0.064-0.504,0.096-0.6,0.096
		c-0.32,0-0.665-0.16-1.032-0.48c-0.368-0.319-0.552-0.592-0.552-0.816c0-0.607,0.319-1.12,0.96-1.536
		c0.543-0.352,1.056-0.528,1.536-0.528c0.064,0,0.304,0.016,0.72,0.048c0.416,0.032,0.672,0.048,0.768,0.048
		c0.096,0,0.216,0.032,0.36,0.096c0.144,0.064,0.248,0.096,0.312,0.096l0.288-0.192h14.88c0.032-0.255-0.12-1.248-0.456-2.976
		s-0.504-2.623-0.504-2.688c0-0.543,0.232-1.104,0.696-1.68c0.464-0.576,1-0.864,1.608-0.864c0.607,0,0.943,0.785,1.008,2.352
		c0.127,2.496,0.4,4.416,0.816,5.76c0.672-0.064,1.648-0.096,2.928-0.096c0.096,0,0.408-0.016,0.936-0.048
		c0.528-0.032,0.832-0.048,0.912-0.048c0.08,0,0.56-0.031,1.44-0.096c0.879-0.064,1.359-0.096,1.44-0.096
		c0.08,0,0.255-0.024,0.528-0.072c0.271-0.048,0.448-0.072,0.528-0.072c0.08,0,0.208-0.016,0.384-0.048
		c0.175-0.031,0.312-0.048,0.408-0.048c0.224,0,0.6-0.096,1.128-0.288c0.528-0.192,1.08-0.288,1.656-0.288
		c0.384,0,0.872,0.176,1.464,0.528c0.592,0.353,0.888,0.737,0.888,1.152c0,0.416-0.4,0.784-1.2,1.104
		c-0.608,0.224-1.12,0.336-1.536,0.336c-0.128,0-0.369,0.032-0.72,0.096c-0.353,0.065-0.584,0.096-0.696,0.096
		c-0.113,0-0.305,0.017-0.576,0.048c-0.272,0.032-0.44,0.048-0.504,0.048l-7.824,0.48c-0.576,0-0.928-0.032-1.056-0.096
		c-0.096,0.096-0.144,0.176-0.144,0.24c0,0.032,0.112,0.608,0.336,1.728c0.288,1.248,0.463,2.16,0.528,2.736l5.232-0.192
		c0.32,0,1.375-0.064,3.168-0.192c1.792-0.127,2.736-0.192,2.832-0.192c0.384,0,0.904,0.161,1.56,0.48
		C103.68,45.784,104.008,46.136,104.008,46.52z"/>
	<path fill="#FFFFFF" d="M145.864,53.863c0,2.529-1.008,5.072-3.024,7.633c-2.208,2.816-4.736,4.303-7.584,4.464
		c-2.336,3.456-3.952,5.185-4.848,5.185h-0.288c-0.161,0-0.417-0.168-0.768-0.504c-0.353-0.336-0.528-0.569-0.528-0.697
		c0-0.352,0.304-0.8,0.912-1.344c0.48-0.416,0.944-0.815,1.392-1.199c0.544-0.608,1.056-1.265,1.536-1.969
		c-0.544-0.191-1.409-0.879-2.592-2.063c-1.28-1.28-1.92-2.272-1.92-2.976c0-0.32,0.16-0.697,0.48-1.129
		c0.32-0.432,0.656-0.647,1.008-0.647h0.288c0.319,0.224,0.847,0.944,1.584,2.159c0.703,1.089,1.423,1.824,2.16,2.209
		c0.64-1.023,1.104-3.168,1.392-6.433c0.032-0.255,0.048-1.104,0.048-2.544c0-1.663-0.048-2.496-0.144-2.496
		c-0.096,0-0.784,0.408-2.064,1.225c-1.28,0.815-2.736,1.896-4.368,3.24c-2.688,2.144-4.032,3.615-4.032,4.416
		c0,0.383,0.4,1.24,1.2,2.567c0.799,1.328,1.2,2.056,1.2,2.185c0,0.383-0.24,0.703-0.72,0.959c-0.353,0.225-0.656,0.336-0.912,0.336
		c-1.504,0-2.784-2.287-3.84-6.863c-0.8-3.392-1.2-5.872-1.2-7.439v-4.321c0-1.087,0.176-2.08,0.528-2.976
		c0.416-1.183,1.072-1.776,1.968-1.776c0.736,0,1.104,0.336,1.104,1.008c-0.512,4.353-0.768,6.881-0.768,7.584
		c0,2.624,0.208,4.496,0.624,5.615c2.752-3.327,6.48-6.127,11.184-8.399c-0.032-0.16-0.128-1.072-0.288-2.736
		c-0.064-1.024-0.305-1.536-0.72-1.536c-0.128,0-0.688,0.497-1.68,1.488c-0.992,0.992-1.616,1.488-1.872,1.488
		c-0.353,0-0.704-0.152-1.056-0.456c-0.353-0.304-0.528-0.616-0.528-0.936c0-0.672,1.167-1.808,3.504-3.408
		c2.24-1.536,3.664-2.304,4.272-2.304c0.256,0,0.528,0.185,0.816,0.552c0.288,0.368,0.432,0.68,0.432,0.936
		c0,0.064-0.096,0.488-0.288,1.272c-0.192,0.785-0.288,1.224-0.288,1.32c0,0.8,0.064,1.904,0.192,3.312
		c0.223,0,0.616-0.031,1.176-0.096c0.56-0.064,0.856-0.096,0.888-0.096c1.951,0,3.343,0.161,4.176,0.48
		c1.504,0.576,2.256,1.776,2.256,3.6V53.863z M143.128,52.52c0-1.631-0.977-2.448-2.928-2.448c-0.545,0-1.457,0.161-2.736,0.48
		v1.296c0,0.449,0.024,1.08,0.072,1.896c0.048,0.816,0.072,1.464,0.072,1.943c0,1.984-0.353,4.434-1.056,7.345
		c1.984-0.608,3.616-2.08,4.896-4.416C142.568,56.536,143.128,54.504,143.128,52.52z"/>
	<path fill="#FFFFFF" d="M194.632,52.712c0,0.769-0.624,2.321-1.872,4.656c-0.896,1.664-4.271,4.344-10.128,8.04
		c-5.855,3.695-9.632,5.544-11.328,5.544c-0.064,0-0.144,0.016-0.239,0.048c-0.097,0.031-0.177,0.048-0.24,0.048
		c-0.513,0-0.977-0.177-1.393-0.528s-0.624-0.768-0.624-1.248c0-0.479,0.24-0.863,0.721-1.151c0.319-0.225,0.56-0.336,0.72-0.336
		c0.928,0.063,3.12-0.849,6.576-2.736c3.615-1.951,6.751-3.983,9.408-6.096c3.199-2.528,4.8-4.513,4.8-5.952
		c0-0.607-0.32-1.119-0.96-1.536c-0.641-0.415-1.265-0.624-1.872-0.624h-5.856c-0.064,0-0.504,0.048-1.319,0.144
		c-0.816,0.096-1.265,0.144-1.345,0.144s-0.248,0.017-0.504,0.048c-0.256,0.032-0.416,0.049-0.479,0.049
		c-0.064,0-0.161-0.017-0.288-0.049c-0.129-0.031-0.225-0.048-0.288-0.048c-0.096,0-0.152,0.032-0.168,0.097
		c-0.017,0.064-0.057,0.096-0.12,0.096l-0.288-0.096c-0.225,0-0.576,0.031-1.056,0.096c-0.48,0.064-0.833,0.096-1.057,0.096
		c-0.064,0-0.191,0.017-0.384,0.048c-0.191,0.032-0.328,0.048-0.408,0.048s-0.191,0.033-0.336,0.096
		c-0.144,0.064-0.248,0.097-0.312,0.097c-0.161,0-0.393,0.032-0.696,0.096c-0.305,0.064-0.536,0.097-0.696,0.097h-0.72
		c-0.096,0-0.216,0.031-0.36,0.096c-0.144,0.064-0.264,0.096-0.359,0.096h-0.72c-0.385,0-0.833-0.16-1.345-0.48
		c-0.641-0.415-0.96-0.847-0.96-1.295c0-0.064,0.064-0.416,0.192-1.056c0.127-0.64,0.159-1.152,0.096-1.536l0.096-8.064
		c-0.448-2.943-0.672-4.24-0.672-3.888c0-0.512,0.353-1.272,1.057-2.28c0.703-1.008,1.423-1.512,2.16-1.512
		c0.319,0,0.575,0.288,0.768,0.864c0.128,0.384,0.256,0.785,0.384,1.2l-0.576,3.984V48.2c0,0.128,0.12,0.28,0.36,0.456
		c0.24,0.176,0.456,0.264,0.648,0.264c0.063,0,0.52-0.016,1.367-0.048c0.848-0.032,1.313-0.048,1.393-0.048
		c0.079,0,0.871-0.08,2.376-0.24c1.504-0.16,2.287-0.24,2.352-0.24h0.288c0.063,0,1.023-0.064,2.88-0.192
		c1.855-0.127,2.815-0.192,2.88-0.192s0.496,0.032,1.297,0.096c0.799,0.064,1.231,0.096,1.296,0.096
		c1.407,0,2.703,0.417,3.888,1.248C193.976,50.296,194.632,51.4,194.632,52.712z M194.824,33.848c0,1.024-0.513,2.128-1.536,3.312
		c-0.929,1.056-1.968,1.84-3.12,2.352c-0.128,0.064-0.513,0.272-1.152,0.624c-0.512,0.288-0.809,0.432-0.888,0.432
		c-0.08,0-0.353,0.144-0.816,0.432s-0.736,0.432-0.815,0.432c-0.08,0-0.16,0.032-0.24,0.096c-0.08,0.064-0.168,0.096-0.264,0.096
		c-0.353,0-1.2,0.305-2.544,0.912c-1.345,0.608-2.064,0.912-2.16,0.912c-0.32,0-0.545,0.064-0.672,0.192
		c-0.864-0.576-1.296-1.12-1.296-1.632c0-0.703,0.207-1.087,0.624-1.152c1.312-0.192,3.359-0.992,6.144-2.4
		c3.36-1.696,5.04-3.2,5.04-4.512c0-0.063-0.16-0.424-0.479-1.08c-0.32-0.655-0.48-1.032-0.48-1.128c0-0.384,0.24-0.703,0.72-0.96
		c0.385-0.223,0.769-0.336,1.152-0.336c0.864,0,1.567,0.4,2.112,1.2C194.6,32.312,194.824,33.048,194.824,33.848z"/>
	<path fill="#FFFFFF" d="M249.64,36.344c0,0.448-0.144,0.864-0.432,1.248c-0.288,0.384-0.656,0.576-1.104,0.576l-38.544,0.096
		c-0.384,0-0.728-0.168-1.031-0.504c-0.305-0.336-0.456-0.679-0.456-1.032c0-1.056,0.783-1.584,2.352-1.584l16.752,0.096
		c0.16,0,0.145-0.992-0.048-2.976c0-2.048,0.607-3.072,1.824-3.072c0.96,0,1.439,0.816,1.439,2.448v3.456l0.192,0.096l17.76-0.144
		C249.208,35.048,249.64,35.48,249.64,36.344z M222.424,59.288c0,1.376-1.84,3.647-5.52,6.815c-3.553,3.104-5.937,4.656-7.152,4.656
		c-0.992,0-1.488-0.432-1.488-1.296c0-0.513,0.208-0.912,0.624-1.2c1.76-1.248,3.521-2.496,5.28-3.744
		c3.199-2.399,4.8-4.063,4.8-4.992c0-0.318-0.16-0.631-0.479-0.936c-0.32-0.304-0.48-0.584-0.48-0.84
		c0-0.384,0.184-0.703,0.552-0.96c0.368-0.256,0.744-0.384,1.129-0.384c0.703,0,1.335,0.336,1.896,1.008
		C222.144,58.088,222.424,58.712,222.424,59.288z M241.72,44.504l-0.096,8.688c0.031,0.225-0.104,0.497-0.408,0.816
		c-0.305,0.32-0.6,0.48-0.888,0.48c-0.064,0-0.696-0.016-1.896-0.049c-1.199-0.031-1.84-0.047-1.92-0.047s-0.384-0.032-0.912-0.097
		c-0.527-0.063-0.84-0.096-0.936-0.096l-3.6,0.096c-0.161,0.608-0.209,3.376-0.145,8.304c0.031,1.856,0.063,3.217,0.096,4.08
		c0.128,3.232-0.672,4.848-2.399,4.848c-0.064,0-0.336,0.017-0.816,0.049c-0.479,0.031-0.752,0.048-0.815,0.048
		c-0.064,0-0.209-0.032-0.433-0.097s-0.368-0.096-0.432-0.096c-0.064,0-0.16-0.016-0.288-0.048s-0.225-0.048-0.288-0.048
		c-0.704,0-1.712-0.271-3.024-0.816c-1.535-0.641-2.304-1.279-2.304-1.92c0-0.32,0.168-0.664,0.504-1.031
		c0.336-0.369,0.696-0.521,1.08-0.457l5.088,1.633h0.576c0.224,0,0.367-0.96,0.433-2.881V54.488c0-0.064-0.049-0.128-0.145-0.192
		c-3.648,0.032-6.305,0.081-7.968,0.144c-1.44,0.033-2.049,0.049-1.824,0.049c-1.024,0-1.536-0.432-1.536-1.297
		c0-0.159,0.016-0.383,0.048-0.672c0.032-0.287,0.048-0.479,0.048-0.576v-5.951c0-0.064-0.096-0.48-0.287-1.248
		c-0.192-0.768-0.288-1.184-0.288-1.248c0-0.607,0.231-1.104,0.695-1.488c0.464-0.384,0.968-0.576,1.513-0.576
		c0.063,0,0.247,0.017,0.552,0.048c0.304,0.032,0.504,0.048,0.6,0.048l18.24,0.096c0.096,0,0.231-0.016,0.408-0.048
		c0.176-0.032,0.304-0.048,0.384-0.048c0.079,0,0.376-0.031,0.888-0.096c0.512-0.064,0.8-0.096,0.864-0.096
		c1.152,0,1.729,0.561,1.729,1.68c0,0.16-0.017,0.408-0.049,0.744C241.735,44.096,241.72,44.344,241.72,44.504z M238.36,51.416
		v-7.008h-18.624v7.008H238.36z M248.392,68.504c0,0.864-0.496,1.296-1.487,1.296c-1.089,0-3.281-1.608-6.576-4.823
		c-3.296-3.217-4.944-5.449-4.944-6.697c0-0.479,0.224-0.863,0.672-1.151s0.912-0.433,1.393-0.433c0.288,0,0.848,0.594,1.68,1.777
		c0.544,0.768,1.072,1.552,1.584,2.352c0.48,0.545,1.231,1.344,2.256,2.4c0.544,0.512,1.936,1.695,4.176,3.551
		C247.976,67.448,248.392,68.023,248.392,68.504z"/>
	<path fill="#FFFFFF" d="M281.08,46.04c0,0.768-0.464,1.152-1.392,1.152c-0.065,0-0.24,0.032-0.528,0.096
		c-0.288,0.064-0.465,0.096-0.528,0.096h-7.296l-3.696,4.177c0,0.096,0.049,0.144,0.145,0.144l5.28,0.096
		c0.063,0,0.247-0.031,0.552-0.096c0.304-0.063,0.495-0.097,0.576-0.097c0.079,0,0.432-0.079,1.056-0.239s0.984-0.24,1.08-0.24
		c0.544,0,0.976,0.265,1.296,0.792c0.319,0.528,0.479,1.049,0.479,1.561v14.256c0,0.543-0.191,1.056-0.575,1.535
		c-0.385,0.48-0.864,0.721-1.44,0.721c-0.064,0-0.296-0.017-0.696-0.049c-0.4-0.031-0.64-0.047-0.72-0.047s-0.208-0.018-0.384-0.049
		c-0.177-0.031-0.296-0.048-0.36-0.048s-0.176-0.032-0.336-0.096c-0.16-0.064-0.272-0.097-0.336-0.097h-4.992
		c-0.096,0-0.216,0.032-0.359,0.097c-0.145,0.063-0.257,0.096-0.336,0.096c-0.081,0-0.721,0.097-1.92,0.288
		c-1.2,0.191-1.849,0.288-1.944,0.288c-0.353,0-0.672-0.2-0.96-0.601s-0.433-0.743-0.433-1.031c0-0.257,0.16-1.104,0.48-2.544
		l-0.144-9.12c-1.089,1.057-2.16,2.129-3.217,3.216c-1.664,1.601-2.768,2.399-3.312,2.399c-0.801,0-1.2-0.511-1.2-1.535
		c0-0.512,0.288-1.016,0.864-1.512s1.151-1,1.728-1.512c1.216-1.217,2.256-2.225,3.12-3.025c0.512-0.447,1.023-0.959,1.536-1.535
		c1.344-1.344,3.264-3.439,5.76-6.288h-11.424c-0.257,0-0.496-0.208-0.72-0.624c-0.192-0.319-0.288-0.544-0.288-0.672
		c0-0.352,0.176-0.704,0.528-1.056c0.352-0.352,0.735-0.528,1.151-0.528c0.064,0,0.344,0.016,0.84,0.048
		c0.496,0.032,0.792,0.048,0.889,0.048c0.096,0,0.456,0.032,1.08,0.096c0.624,0.064,0.967,0.096,1.031,0.096l0.673-0.096
		c-0.161,0,0.199,0.017,1.079,0.048c0.88,0.032,1.976,0.048,3.288,0.048c-0.128-0.096-0.16-0.367-0.096-0.816
		c0.031-0.319,0.079-0.655,0.144-1.008v-4.56h-6.96c-0.353,0-0.712-0.136-1.079-0.408c-0.369-0.271-0.553-0.583-0.553-0.936
		c0-0.255,0.168-0.576,0.504-0.96c0.336-0.384,0.632-0.576,0.889-0.576c0.063,0,0.472,0.017,1.224,0.048
		c0.752,0.032,1.176,0.048,1.272,0.048c-0.064,0,0.327,0.024,1.176,0.072c0.848,0.048,1.976,0.088,3.384,0.12
		c0.031-0.416-0.017-1.304-0.144-2.664c-0.129-1.36-0.192-2.023-0.192-1.992c0-1.184,0.592-1.776,1.776-1.776
		c0.991,0,1.487,0.833,1.487,2.496c0,0.32-0.017,0.712-0.048,1.176c-0.032,0.464-0.048,0.729-0.048,0.792v1.824
		c0.576,0.16,1.184,0.24,1.824,0.24c0.415,0,1.048-0.048,1.896-0.144c0.848-0.096,1.544-0.144,2.088-0.144
		c0.064,0,0.224-0.016,0.48-0.048c0.256-0.031,0.415-0.048,0.479-0.048l2.784-0.096c0.384,0,0.744,0.144,1.08,0.432
		s0.504,0.641,0.504,1.056c0,0.704-0.448,1.168-1.344,1.392c-0.288,0.064-0.944,0.113-1.968,0.144
		c-0.833,1.344-2.032,3.456-3.601,6.336c0.256-0.063,0.656-0.096,1.2-0.096h0.288c0.063,0,0.319-0.016,0.769-0.048
		c0.447-0.031,0.711-0.048,0.792-0.048c0.079,0,0.575-0.016,1.487-0.048c0.912-0.032,1.399-0.048,1.464-0.048
		c0.416,0,0.864,0.16,1.345,0.48C280.84,45.208,281.08,45.592,281.08,46.04z M275.464,58.712v-4.272h-10.032v4.465l9.648-0.096
		C275.272,58.809,275.399,58.776,275.464,58.712z M275.512,66.775v-5.279h-10.08v5.424h9.937L275.512,66.775z M273.4,38.36h-4.656
		v6.24l1.152,0.096C270.856,43.192,272.023,41.08,273.4,38.36z M298.504,32.312c0,0.544-3.12,5.552-9.36,15.024
		c2.048,1.152,3.824,2.928,5.328,5.328c1.6,2.496,2.4,4.848,2.4,7.057v2.063c0,0.992-0.416,2.016-1.248,3.071
		c-0.929,1.184-1.937,1.776-3.024,1.776c-0.096,0-0.359,0.017-0.792,0.048c-0.432,0.031-0.68,0.049-0.743,0.049
		c-0.641,0-1.665-0.354-3.072-1.057c-1.248-0.607-2.081-1.135-2.496-1.584c0.063,1.279-0.017,2.752-0.24,4.416
		c-0.288,2.336-0.815,3.504-1.584,3.504h-0.528c-0.8,0-1.199-0.912-1.199-2.736l0.575-8.111V35.432c0-0.096-0.064-0.552-0.191-1.368
		c-0.128-0.816-0.192-1.272-0.192-1.368c0-1.248,0.433-1.872,1.296-1.872c0.064,0,0.408,0.048,1.032,0.144
		c0.624,0.096,0.984,0.144,1.08,0.144s0.231,0.017,0.408,0.048c0.176,0.032,0.304,0.048,0.384,0.048c0.079,0,0.24,0.032,0.48,0.096
		c0.239,0.064,0.407,0.096,0.504,0.096h5.136c0.096,0,0.296-0.016,0.6-0.048c0.304-0.032,0.496-0.048,0.576-0.048
		s0.224-0.032,0.433-0.096c0.207-0.064,0.352-0.096,0.432-0.096c0.079,0,0.176-0.016,0.288-0.048
		c0.111-0.031,0.208-0.048,0.288-0.048c0.079,0,0.159-0.016,0.239-0.048c0.08-0.031,0.16-0.048,0.24-0.048s0.256-0.016,0.528-0.048
		c0.271-0.032,0.456-0.048,0.552-0.048c0.352,0,0.752,0.168,1.2,0.504C298.279,31.664,298.504,31.993,298.504,32.312z
		 M294.184,60.393c0-2.336-0.72-4.544-2.159-6.625c-0.929-1.375-2.257-2.752-3.984-4.127c-1.44-1.152-2.16-1.792-2.16-1.92
		c0-0.096,1.12-1.888,3.36-5.376c2.496-3.904,4.144-6.608,4.943-8.112l-7.199-0.144c-0.129,0-0.4,0.072-0.816,0.216
		s-0.672,0.248-0.768,0.312v26.495c0.607,0.449,1.423,0.93,2.447,1.44c1.184,0.608,2.032,0.912,2.544,0.912
		c0.064,0,0.224,0.032,0.48,0.097c0.256,0.064,0.432,0.096,0.528,0.096c0.863,0,1.543-0.336,2.04-1.008
		C293.936,61.977,294.184,61.225,294.184,60.393z"/>
	<path fill="#FFFFFF" d="M334.264,62.359c0,1.377-0.304,2.785-0.912,4.225c-0.8,1.888-1.855,2.832-3.168,2.832l-9.84,0.096
		c-0.064,0-0.256,0.049-0.576,0.145s-0.512,0.144-0.575,0.144h-0.769c-0.064,0-0.168,0.017-0.312,0.048
		c-0.145,0.031-0.265,0.049-0.36,0.049c-0.288,0-0.576-0.186-0.864-0.553c-0.288-0.368-0.432-0.713-0.432-1.031
		c0-0.225,0.208-0.833,0.624-1.824c0.415-0.992,0.624-1.744,0.624-2.256V34.28c0-0.031-0.064-0.16-0.192-0.384
		c-0.32-0.127-0.624-0.192-0.912-0.192c-1.056,0-1.584-0.448-1.584-1.344c0-0.255,0.128-0.56,0.385-0.912
		c0.255-0.352,0.527-0.528,0.815-0.528c0.063,0,0.304,0.017,0.72,0.048c0.416,0.033,0.664,0.048,0.744,0.048s0.4,0.032,0.96,0.096
		c0.56,0.064,0.872,0.096,0.937,0.096c0.063,0,0.191-0.016,0.384-0.048c0.192-0.032,0.328-0.048,0.408-0.048
		c0.079,0,0.304-0.031,0.672-0.096c0.367-0.064,0.583-0.096,0.648-0.096c0.352,0,0.64,0.208,0.863,0.624
		c0.224,0.417,0.336,0.736,0.336,0.96c0,0.32-0.152,0.6-0.456,0.84c-0.304,0.24-0.592,0.36-0.863,0.36
		c-0.272,0-0.617,0.064-1.032,0.192c-0.064-0.032-0.145,0-0.24,0.096v32.736h9.168c0.864,0,1.408-0.576,1.632-1.729
		c0.128-1.023,0.271-2.088,0.433-3.191c0.159-1.104,0.592-1.656,1.296-1.656C333.784,60.152,334.264,60.889,334.264,62.359z"/>
	<path fill="#FFFFFF" d="M360.664,66.008c0,0.8-0.616,1.695-1.848,2.688c-1.232,0.992-2.201,1.488-2.904,1.488h-0.384
		c-0.737,0-1.393-0.512-1.969-1.535c-0.512-0.864-0.768-1.697-0.768-2.496c-2.272,2.688-4.385,4.031-6.336,4.031h-0.72
		c-2.017,0-3.536-0.943-4.561-2.832c-0.736-1.376-1.104-2.943-1.104-4.703c0-1.889,0.384-3.68,1.151-5.377
		c0.992-2.143,2.416-3.424,4.272-3.84l0.192-0.191c0.063,0,0.159,0,0.287,0s0.224,0,0.288,0s0.192-0.016,0.385-0.049
		c0.191-0.031,0.327-0.047,0.407-0.047s0.32-0.016,0.721-0.049c0.399-0.031,0.631-0.048,0.695-0.048c0.832,0,1.816,0.36,2.952,1.08
		s1.832,1.48,2.088,2.28c0.288-0.576,0.433-1.695,0.433-3.36c0-2.208-0.385-3.744-1.152-4.608c-0.864-0.96-2.496-1.44-4.896-1.44
		c-1.152,0-2.417,0.848-3.793,2.544c-1.376,1.696-2.159,2.544-2.352,2.544c-0.416,0-0.768-0.151-1.056-0.456
		c-0.288-0.304-0.433-0.632-0.433-0.984c0-1.408,1.072-2.848,3.217-4.32c1.92-1.344,3.455-2.016,4.607-2.016
		c2.304,0,4.176,0.416,5.616,1.248c1.824,1.056,2.736,2.705,2.736,4.944v3.553l-1.248,8.976v2.112c0,1.311,0.399,1.967,1.199,1.967
		c0.48,0,0.96-0.416,1.44-1.248c0.479-0.832,0.896-1.311,1.248-1.439h0.384c0.319,0,0.601,0.2,0.84,0.6
		C360.544,65.424,360.664,65.752,360.664,66.008z M352.312,60.393c0-0.992-0.256-1.904-0.768-2.736
		c-0.641-1.152-1.632-1.729-2.976-1.729c-0.064,0-0.225-0.031-0.48-0.096c-0.257-0.064-0.416-0.096-0.479-0.096
		c-1.601,0-2.832,0.928-3.696,2.783c-0.641,1.344-0.96,2.721-0.96,4.129c0,1.151,0.224,2.176,0.672,3.072
		c0.576,1.119,1.392,1.68,2.448,1.68l0.479-0.096c1.632,0,3.04-0.85,4.225-2.545C351.8,63.289,352.312,61.832,352.312,60.393z"/>
	<path fill="#FFFFFF" d="M382.936,57.225c0-0.032-0.032,0.328-0.096,1.08c-0.064,0.752-0.096,1.319-0.096,1.703
		c0.096,1.601-0.416,3.521-1.536,5.76c-1.408,2.752-3.12,4.129-5.136,4.129c-0.097,0-0.2,0.031-0.313,0.096
		c-0.112,0.063-0.2,0.096-0.264,0.096h-0.864l-1.056,0.096c-0.096,0-0.216-0.031-0.36-0.096c-0.144-0.064-0.248-0.096-0.312-0.096
		c-0.064,0-0.2-0.032-0.408-0.096c-0.209-0.064-0.345-0.097-0.408-0.097c-0.641,0-1.536-0.528-2.688-1.584
		c-1.024-0.929-1.633-1.616-1.824-2.063c-0.064,0.832-0.129,1.663-0.192,2.496c-0.096,0.959-0.448,1.439-1.056,1.439l-0.288,0.096
		c-0.48,0-0.896-0.336-1.248-1.008c-0.288-0.512-0.432-0.943-0.432-1.296c0-0.032,0.071-0.632,0.216-1.8
		c0.144-1.168,0.199-2.088,0.168-2.76l0.096-26.353c-0.512-2.911-0.768-4.144-0.768-3.696c0-0.544,0.199-1.072,0.6-1.584
		c0.399-0.512,0.888-0.768,1.464-0.768h0.384c0.416,0,0.752,0.305,1.009,0.912c0.191,0.48,0.288,0.96,0.288,1.44
		c0,0.096-0.064,0.584-0.192,1.464c-0.128,0.881-0.192,1.353-0.192,1.416v11.664l0.145,0.144c0.512-0.832,1.312-1.632,2.399-2.4
		c1.216-0.832,2.32-1.248,3.313-1.248C379.72,44.312,382.936,48.616,382.936,57.225z M380.056,57.416
		c0-1.888-0.224-3.664-0.672-5.328c-0.832-3.072-2.256-4.608-4.271-4.608c-0.097,0-0.185-0.031-0.265-0.096
		c-0.08-0.063-0.152-0.096-0.216-0.096c-2.368,0-4.208,1.04-5.52,3.12c-1.057,1.664-1.584,3.584-1.584,5.76v1.92
		c0,0.768,0.288,2.225,0.863,4.368c0.256,1.024,0.904,2.057,1.944,3.096c1.04,1.04,1.992,1.56,2.856,1.56h0.911
		c2.336,0,4-1.231,4.992-3.695C379.735,61.816,380.056,59.816,380.056,57.416z"/>
</g>
<g>
</g>
<g>
</g>
<g>
</g>
<g>
</g>
<g>
</g>
<g>
</g>
<g>
</g>
<g>
</g>
<g>
</g>
<g>
</g>
<g>
</g>
<g>
</g>
<g>
</g>
<g>
</g>
<g>
</g>
</svg>
