<?xml version="1.0" encoding="utf-8"?>
<!-- Generator: Adobe Illustrator 16.0.3, SVG Export Plug-In . SVG Version: 6.00 Build 0)  -->
<!DOCTYPE svg PUBLIC "-//W3C//DTD SVG 1.1//EN" "http://www.w3.org/Graphics/SVG/1.1/DTD/svg11.dtd">
<svg version="1.1" id="レイヤー_1" xmlns="http://www.w3.org/2000/svg" xmlns:xlink="http://www.w3.org/1999/xlink" x="0px"
	 y="0px" width="20px" height="20px" viewBox="30 0 20 20" enable-background="new 30 0 20 20" xml:space="preserve">
<g id="_x31_0_x2013_20_x25__Black_Tint">
	<rect x="30" opacity="0.15" fill="none" enable-background="new    " width="20" height="20"/>
</g>
<g id="Logo__x2014__FIXED">
	<g>
		<path fill="#FFFFFF" d="M37.68,15.08c4.714,0,7.294-3.91,7.294-7.295c0-0.11,0-0.22-0.004-0.33c0.5-0.36,0.934-0.815,1.279-1.33
			c-0.46,0.205-0.955,0.34-1.475,0.405c0.529-0.315,0.935-0.82,1.129-1.42c-0.494,0.295-1.045,0.505-1.629,0.62
			c-0.471-0.5-1.135-0.81-1.871-0.81c-1.414,0-2.564,1.15-2.564,2.565c0,0.2,0.025,0.395,0.065,0.585
			c-2.13-0.105-4.02-1.13-5.285-2.68c-0.22,0.38-0.345,0.82-0.345,1.29c0,0.89,0.455,1.675,1.14,2.135
			c-0.42-0.015-0.815-0.13-1.16-0.32c0,0.01,0,0.02,0,0.035c0,1.24,0.885,2.281,2.055,2.515c-0.215,0.061-0.44,0.09-0.675,0.09
			c-0.165,0-0.325-0.015-0.48-0.045c0.325,1.02,1.275,1.76,2.395,1.78c-0.88,0.69-1.985,1.101-3.185,1.101
			c-0.205,0-0.41-0.011-0.61-0.035C34.885,14.654,36.235,15.08,37.68,15.08"/>
	</g>
</g>
</svg>
